<?xml version="1.0" standalone="no"?>
<!DOCTYPE svg PUBLIC "-//W3C//DTD SVG 20010904//EN"
 "http://www.w3.org/TR/2001/REC-SVG-20010904/DTD/svg10.dtd">
<svg version="1.0" xmlns="http://www.w3.org/2000/svg"
 width="137.000000pt" height="142.000000pt" viewBox="0 0 137.000000 142.000000"
 preserveAspectRatio="xMidYMid meet">
<metadata>
Created by potrace 1.10, written by Peter Selinger 2001-2011
</metadata>
<g transform="translate(0.000000,142.000000) scale(0.100000,-0.100000)"
fill="#000000" stroke="none">
<path d="M32 695 l3 -665 643 0 642 0 3 665 2 665 -648 0 -647 0 2 -665z
m1247 611 c9 -11 11 -170 9 -622 l-3 -608 -25 -7 c-14 -4 -282 -7 -596 -8
-431 -1 -573 2 -582 11 -9 9 -12 161 -12 623 0 337 3 615 7 618 3 4 273 7 598
7 497 0 594 -2 604 -14z"/>
<path d="M858 603 c-10 -2 -18 -9 -18 -14 0 -6 -4 -8 -10 -4 -5 3 -18 -2 -28
-12 -30 -29 -62 -53 -62 -48 0 3 -8 -3 -18 -12 -37 -36 -72 -63 -81 -63 -5 0
-26 -16 -47 -35 -22 -19 -47 -37 -56 -41 -10 -3 -18 -9 -18 -13 0 -4 -9 -17
-21 -30 -17 -18 -20 -29 -13 -59 4 -20 9 -45 9 -54 4 -38 85 -101 85 -66 0 5
4 6 10 3 5 -3 21 5 35 19 14 14 41 33 60 42 19 9 35 20 35 25 0 5 7 9 15 9 8
0 15 5 15 10 0 6 6 10 13 10 6 0 23 9 36 19 14 10 31 16 40 13 9 -3 12 -1 7 6
-13 21 28 13 66 -13 20 -14 42 -25 47 -25 6 0 11 -4 11 -10 0 -5 7 -10 15 -10
8 0 15 -5 15 -11 0 -5 4 -8 9 -4 5 3 18 -6 29 -20 11 -13 22 -21 26 -18 3 4
12 -2 20 -12 7 -10 18 -15 24 -11 7 4 12 1 12 -8 0 -8 5 -18 12 -22 7 -4 8 -3
4 5 -6 8 0 10 18 5 40 -10 75 41 90 130 4 24 -1 36 -29 63 -18 18 -54 45 -79
61 -25 16 -43 32 -39 36 3 3 1 6 -6 6 -19 0 -101 66 -93 75 4 5 1 5 -5 1 -8
-4 -26 5 -45 24 -18 17 -43 33 -55 36 -13 4 -20 10 -17 15 3 5 4 8 2 8 -2 -1
-11 -3 -20 -6z m105 -110 c56 -42 104 -80 107 -83 3 -4 34 -28 70 -54 36 -27
66 -49 68 -51 3 -3 -28 -117 -33 -123 -3 -4 -105 58 -224 136 l-84 54 -31 -17
c-17 -10 -87 -53 -154 -97 -68 -43 -128 -78 -133 -78 -5 0 -9 8 -9 19 0 10 -6
36 -14 58 -8 22 -11 44 -8 49 4 5 66 53 139 107 73 53 147 111 165 127 18 17
34 30 36 30 2 0 49 -35 105 -77z"/>
</g>
</svg>
